<svg xmlns="http://www.w3.org/2000/svg" xmlns:xlink="http://www.w3.org/1999/xlink" style="vertical-align:-5.63ex" width="36.975ex" height="12.384ex" viewBox="0 -2908.2 15919.9 5332.1"><defs><path id="l" stroke-width="1" d="M56 347q0 13 14 20h637q15-8 15-20 0-11-14-19l-318-1H72q-16 5-16 20zm0-194q0 15 16 20h636q14-10 14-20 0-13-15-20H70q-14 7-14 20z"/><path id="e" stroke-width="1" d="M33 157q0 101 76 192t171 92q51 0 90-49 16 30 46 30 13 0 23-8t10-20q0-13-37-160T374 68q0-25 7-33t21-9q9 1 20 9 21 20 41 96 6 20 10 21 2 1 10 1h4q19 0 19-9 0-6-5-27t-20-54-32-50Q436 0 417-8q-8-2-24-2-34 0-57 15t-30 31l-6 15q-1 1-4-1l-4-4q-59-56-120-56-55 0-97 40T33 157zm318 171q0 6-5 22t-23 35-46 20q-35 0-67-31t-50-81q-29-79-41-164v-11q0-8-1-12 0-45 18-62t43-18q38 0 75 33t44 51q2 4 27 107t26 111z"/><path id="g" stroke-width="1" d="M52 289q7 42 54 97t116 56q35 0 64-18t43-45q42 63 101 63 37 0 64-22t28-59q0-29-14-47t-27-22-23-4q-19 0-31 11t-12 29q0 46 50 63-11 13-40 13-13 0-19-2-38-16-56-66-60-221-60-258 0-28 16-40t35-12q37 0 73 33t49 81q3 10 6 11t16 2h4q15 0 15-8 0-1-2-11-16-57-62-101T333-11q-70 0-106 63-41-62-94-62h-6q-49 0-70 26T35 71q0 32 19 52t45 20q43 0 43-42 0-20-12-35t-23-20-13-5l-3-1q0-1 6-4t16-7 19-3q36 0 62 45 9 16 23 68t28 108 16 66q5 27 5 39 0 28-15 40t-34 12q-40 0-75-32t-49-82q-2-9-5-10t-16-2H58q-6 6-6 11z"/><path id="h" stroke-width="1" d="M56 237v13l14 20h299v150l1 150q10 13 19 13 13 0 20-15V270h298q15-8 15-20t-15-20H409V-68q-8-14-18-14h-4q-12 0-18 14v298H70q-14 7-14 20z"/><path id="i" stroke-width="1" d="M109 429q-27 0-43 18t-16 44q0 71 53 123t132 52q91 0 152-56t62-145q0-43-20-82t-48-68-80-74q-36-31-100-92l-59-56 76-1q157 0 167 5 7 2 24 89v3h40v-3q-1-3-13-91T421 3V0H50v31q0 7 6 15t30 35q29 32 50 56 9 10 34 37t34 37 29 33 28 34 23 30 21 32 15 29 13 32 7 30 3 33q0 63-34 109t-97 46q-33 0-58-17t-35-33-10-19q0-1 5-1 18 0 37-14t19-46q0-25-16-42t-45-18z"/><path id="j" stroke-width="1" d="M78 250q0 24 17 42t43 18q24 0 42-16t19-43q0-25-17-43t-43-18-43 17-18 43zm447 0q0 24 17 42t43 18q24 0 42-16t19-43q0-25-17-43t-43-18-43 17-18 43zm447 0q0 24 17 42t43 18q24 0 42-16t19-43q0-25-17-43t-43-18-43 17-18 43z"/><path id="k" stroke-width="1" d="M21 287q1 6 3 16t12 38 20 47 33 37 46 17q36 0 60-18t30-34 6-21q0-2 1-2l11 11q61 64 139 64 54 0 87-27t34-79-38-157-38-127q0-26 17-26 6 0 9 1 29 5 52 38t35 80q2 8 20 8 20 0 20-8 0-1-4-15-8-29-22-57t-46-56-69-27q-47 0-68 27t-21 56q0 19 36 120t37 152q0 59-44 59h-5q-86 0-145-101l-7-12-33-134Q156 26 151 16q-13-27-43-27-13 0-21 6T76 7t-2 10q0 13 38 163t40 163q1 5 1 23 0 39-24 39-38 0-63-100-6-20-6-21-2-6-19-6H27q-6 6-6 9z"/><path id="f" stroke-width="1" d="M213 578l-13-5q-14-5-40-10t-58-7H83v46h19q47 2 87 15t56 24 28 22q2 3 12 3 9 0 17-6V361l1-300q7-7 12-9t24-4 62-2h26V0h-11q-21 3-159 3-136 0-157-3H88v46h64q16 0 25 1t16 3 8 2 6 5 6 4v517z"/><path id="m" stroke-width="1" d="M96 585q56 81 153 81 48 0 96-26t78-92q37-83 37-228 0-155-43-237-20-42-55-67t-61-31-51-7q-26 0-52 6t-61 32-55 67q-43 82-43 237 0 174 57 265zm225 12q-30 32-71 32-42 0-72-32-25-26-33-72t-8-192q0-158 8-208t36-79q28-30 69-30 40 0 68 30 29 30 36 84t8 203q0 145-8 191t-33 73z"/><path id="n" stroke-width="1" d="M21 287q1 6 3 16t12 38 20 47 32 37 44 17 43-7 30-18 16-22 8-19l2-7q0-2 1-2l11 11q60 64 141 64 17 0 31-2t26-7 19-10 15-12 10-13 8-13 4-12 3-9 2-7l8 10q63 75 149 75 54 0 87-27t34-79q0-51-38-158T704 50q1-14 5-19t15-5q28 0 52 30t39 82q3 11 6 13t16 2q20 0 20-8 0-1-4-15-8-29-22-57t-46-56-69-27q-47 0-68 27t-21 56q0 19 36 120t37 152q0 59-44 59h-5q-86 0-145-101l-7-12-33-134Q433 26 428 16q-13-27-43-27-13 0-21 7T353 8t-3 10q0 11 34 143l36 146q3 15 3 38 0 59-44 59h-5q-86 0-145-101l-7-12-33-134Q156 26 151 16q-13-27-43-27-13 0-21 6T76 7t-2 10q0 13 38 164 39 154 39 161 3 15 3 27 0 36-25 36-22 0-37-28t-23-61-12-36q-2-2-16-2H27q-6 6-6 9z"/><path id="a" stroke-width="1" d="M712 899l6-6v-28q0-11-14-19-77-53-127-136t-67-185q0-1-1-4-4-28-5-172v-15-94q0-242-1-244-1-4-9-5t-50-1q-52 0-54 1-3 1-4 4-2 10-2 235v82q0 50-1 70 0 99 9 153t42 121q76 150 230 236l13 7h35z"/><path id="d" stroke-width="1" d="M718-893l-6-6h-35l-11 6q-124 68-198 179t-83 238q-1 10-1 194 0 285 1 287l4 4q3 1 55 1 42 0 50-1t9-5q1-2 1-243v-127q0-104 4-147t22-96q16-48 39-89t48-69 44-45 38-31 18-13 1-20v-17z"/><path id="c" stroke-width="1" d="M389 1159q2 1 66 1 41 0 43-1 3-1 4-4 2-10 2-231 0-233-1-242-9-133-78-243T243 259l-14-9 14-9q106-66 178-175t82-248q1-9 1-242v-205q0-29-5-30h-1q-2-1-54-1t-54 1q-3 1-4 4-2 10-2 230v143q0 106-7 166T342 10q-17 44-41 82t-46 63-41 41-31 26-12 10q-1 1-1 18t1 18q0 1 20 16t49 47 60 76 54 117 29 155q1 12 1 246 0 227 1 230l4 4z"/><path id="b" stroke-width="1" d="M384 150v116q0 38 5 43 2 1 66 1 41 0 43-1 4-1 5-11 1-15 1-148V12q0-20-5-21h-1q-2-1-54-1t-54 1q-4 1-5 11-1 15-1 148z"/></defs><g fill="currentColor" stroke="currentColor" stroke-width="0"><g transform="matrix(1 0 0 -1 0 -2850)"><use y="-900" xlink:href="#a"/><use transform="matrix(1 0 0 2.7267 0 -1709.006)" xlink:href="#b"/><use y="-2850" xlink:href="#c"/><use transform="matrix(1 0 0 2.7267 0 -4309.006)" xlink:href="#b"/><use y="-4300" xlink:href="#d"/></g><g transform="matrix(1 0 0 -1 1442 -2050)"><use xlink:href="#e"/><g transform="matrix(.707 0 0 .707 529 -150)"><use xlink:href="#f"/><use x="500" xlink:href="#f"/></g><g transform="translate(1337)"><use xlink:href="#g"/><use x="809" y="-213" transform="scale(.707)" xlink:href="#f"/></g><use x="2585" xlink:href="#h"/><g transform="translate(3586)"><use xlink:href="#e"/><g transform="matrix(.707 0 0 .707 529 -150)"><use xlink:href="#f"/><use x="500" xlink:href="#i"/></g></g><g transform="translate(4923)"><use xlink:href="#g"/><use x="809" y="-213" transform="scale(.707)" xlink:href="#i"/></g><use x="6172" xlink:href="#h"/><use x="7173" xlink:href="#j"/><use x="8568" xlink:href="#h"/><g transform="translate(9568)"><use xlink:href="#e"/><g transform="matrix(.707 0 0 .707 529 -150)"><use xlink:href="#f"/><use x="500" xlink:href="#k"/></g></g><g transform="translate(10976)"><use xlink:href="#g"/><use x="809" y="-213" transform="scale(.707)" xlink:href="#k"/></g><use x="12351" xlink:href="#l"/><use x="13407" xlink:href="#m"/></g><g transform="matrix(1 0 0 -1 1442 -650)"><use xlink:href="#e"/><g transform="matrix(.707 0 0 .707 529 -150)"><use xlink:href="#i"/><use x="500" xlink:href="#f"/></g><g transform="translate(1337)"><use xlink:href="#g"/><use x="809" y="-213" transform="scale(.707)" xlink:href="#f"/></g><use x="2585" xlink:href="#h"/><g transform="translate(3586)"><use xlink:href="#e"/><g transform="matrix(.707 0 0 .707 529 -150)"><use xlink:href="#i"/><use x="500" xlink:href="#i"/></g></g><g transform="translate(4923)"><use xlink:href="#g"/><use x="809" y="-213" transform="scale(.707)" xlink:href="#i"/></g><use x="6172" xlink:href="#h"/><use x="7173" xlink:href="#j"/><use x="8568" xlink:href="#h"/><g transform="translate(9568)"><use xlink:href="#e"/><g transform="matrix(.707 0 0 .707 529 -150)"><use xlink:href="#i"/><use x="500" xlink:href="#k"/></g></g><g transform="translate(10976)"><use xlink:href="#g"/><use x="809" y="-213" transform="scale(.707)" xlink:href="#k"/></g><use x="12351" xlink:href="#l"/><use x="13407" xlink:href="#m"/></g><g transform="matrix(1 0 0 -1 7141 750)"><use xlink:href="#j"/><use x="1339" xlink:href="#j"/></g><g transform="matrix(1 0 0 -1 1042 2150)"><use xlink:href="#e"/><g transform="matrix(.707 0 0 .707 529 -150)"><use xlink:href="#n"/><use x="878" xlink:href="#f"/></g><g transform="translate(1604)"><use xlink:href="#g"/><use x="809" y="-213" transform="scale(.707)" xlink:href="#f"/></g><use x="2853" xlink:href="#h"/><g transform="translate(3853)"><use xlink:href="#e"/><g transform="matrix(.707 0 0 .707 529 -150)"><use xlink:href="#n"/><use x="878" xlink:href="#i"/></g></g><g transform="translate(5458)"><use xlink:href="#g"/><use x="809" y="-213" transform="scale(.707)" xlink:href="#i"/></g><use x="6707" xlink:href="#h"/><use x="7707" xlink:href="#j"/><use x="9102" xlink:href="#h"/><g transform="translate(10103)"><use xlink:href="#e"/><g transform="matrix(.707 0 0 .707 529 -150)"><use xlink:href="#n"/><use x="878" xlink:href="#k"/></g></g><g transform="translate(11778)"><use xlink:href="#g"/><use x="809" y="-213" transform="scale(.707)" xlink:href="#k"/></g><use x="13153" xlink:href="#l"/><use x="14209" xlink:href="#m"/></g></g></svg>